<?xml version="1.0" encoding="UTF-8"?>
<!DOCTYPE svg PUBLIC "-//W3C//DTD SVG 1.1//EN" "http://www.w3.org/Graphics/SVG/1.1/DTD/svg11.dtd">
<svg version="1.1" xmlns="http://www.w3.org/2000/svg" xmlns:xlink="http://www.w3.org/1999/xlink" x="0" y="0" width="784" height="1164" viewBox="0, 0, 784, 1164">
  <defs>
    <clipPath id="Clip_1">
      <path d="M0.06,0.56 L783.798,0.56 L783.798,1163.94 L0.06,1163.94 z"/>
    </clipPath>
  </defs>
  <g id="Layer_1">
    <g clip-path="url(#Clip_1)">
      <path d="M704.18,593.931 C695.262,602.156 685.988,609.916 675.53,616.162 C663.786,623.177 651.065,627.03 637.463,628.092 C634.901,628.496 634.618,626.199 633.787,624.789 C628.699,616.145 623.071,607.94 615.864,600.869 C611.578,596.664 611.478,595.136 616.028,591.067 C625.124,582.931 633.243,573.926 640.666,564.297 C658.904,540.639 671.355,514.071 679.791,485.533 C681.914,478.352 682.003,478.202 689.226,477.711 C710.273,476.28 724.767,464.448 729.875,443.958 C733.41,429.778 733.135,415.535 728.536,401.574 C724.981,390.781 718.283,382.993 706.719,380.331 C705.01,379.937 703.587,379.16 702.693,377.634 C700.673,374.185 697.528,373.131 693.769,373.345 C664.916,374.987 637.632,367.475 610.536,358.984 C580.583,349.598 551.54,337.956 523.795,323.216 C493.365,307.051 465.193,287.677 439.452,264.675 C405.679,234.495 378.294,199.352 356.399,159.828 C351.475,150.938 347.231,141.689 342.673,132.606 C341.154,129.579 339.273,127.28 335.487,127.461 C331.805,127.636 329.67,129.694 328.659,133.035 C327.756,136.021 325.255,136.92 322.753,137.896 C304.196,145.137 286.805,154.559 270.438,165.891 C243.645,184.441 221.763,207.691 204.294,235.143 C178.577,275.555 165.066,320.197 158.576,367.266 C158.531,367.595 158.511,367.929 158.466,368.259 C157.094,378.339 157.073,378.178 146.9,379.511 C137.226,380.777 129.671,385.772 124.824,394.196 C118.271,405.586 117.312,418.174 118.219,430.957 C118.488,434.751 118.783,438.566 119.717,442.328 C125.144,464.184 138.176,475.675 160.696,477.548 C165.587,477.955 167.606,479.867 168.863,484.373 C178.166,517.733 193.579,547.957 216.265,574.239 C223.004,582.046 230.363,589.349 238.249,596.037 C245.009,601.769 245.164,602.124 240.153,609.181 C237.068,613.525 233.899,617.809 231.226,622.44 C230.363,623.937 229.765,625.925 227.504,626.088 C223.275,623.842 220.305,619.382 215.023,618.987 C188.584,598.114 163.946,575.546 145.633,546.82 C127.757,518.782 115.118,488.514 106.122,456.598 C102.053,442.163 98.954,427.514 95.741,412.884 C95.381,411.242 95.141,409.61 95.5,407.938 C96.898,404.088 95.044,400.371 95.034,396.574 C94.908,351.013 100.632,306.306 113.867,262.601 C123.726,230.043 137.257,199.208 155.653,170.562 C164.767,156.371 175.171,143.179 186.955,131.105 C203.131,114.532 219.565,98.239 238.418,84.623 C252.667,74.333 267.76,65.622 284.437,59.846 C285.955,59.427 287.323,58.608 288.837,58.174 C291.96,57.448 295.139,57.823 298.292,57.699 C302.525,57.533 305.395,55.614 305.803,51.259 C306.157,47.474 308.371,45.37 311.283,43.466 C322.438,36.171 334.885,31.886 347.522,28.238 C369.984,21.754 393.011,18.612 416.295,16.589 C469.751,11.945 519.706,24.485 567.852,46.374 C603.362,62.518 634.865,84.526 662.575,111.967 C664.339,113.714 666.284,115.345 667.171,117.797 C670.627,157.934 648.009,190.648 600.451,194.433 C613.283,200.048 626.14,201.6 639.407,200.329 C663.217,198.048 684.317,188.563 704.193,175.842 C706.123,174.606 707.941,172.956 710.539,173.363 C713.5,174.422 714.635,177.15 716.059,179.548 C740.278,220.333 755.431,264.247 761.667,311.276 C764.467,332.392 766.489,353.547 767.901,374.818 C771.701,432.037 763.247,487.051 739.87,539.516 C731.935,557.326 722.447,574.358 710.53,589.909 C708.457,591.309 706.667,593.173 704.18,593.931" fill="#DBA76F"/>
      <path d="M227.504,626.088 C232.049,618.736 236.347,611.203 242.131,604.715 C244.676,601.859 241.899,600.94 240.468,599.728 C227.587,588.815 215.819,576.865 205.713,563.297 C187.895,539.379 175.438,512.867 167.41,484.231 C166.392,480.599 165.235,478.982 160.88,478.861 C137.462,478.209 120.005,461.301 117.38,437.355 C115.839,423.302 115.914,409.384 122.185,396.304 C127.978,384.219 137.748,377.905 151.228,378.017 C155.046,378.049 156.035,376.997 156.52,373.109 C163.789,314.856 181.195,260.433 218.027,213.576 C245.64,178.448 280.664,153.265 322.062,136.775 C324.858,135.662 327.222,134.747 327.947,131.07 C328.598,127.776 331.524,126.098 335.112,125.939 C339.105,125.762 341.724,127.483 343.411,131.054 C348.461,141.739 353.698,152.328 359.496,162.635 C396.604,228.61 448.581,279.65 514.48,316.589 C557.587,340.753 603.421,357.884 651.658,368.559 C665.205,371.556 678.946,372.818 692.821,372.037 C697.62,371.766 701.871,372.253 704.069,377.324 C704.425,378.145 705.029,378.584 705.929,378.772 C721.69,382.068 728.68,393.352 731.696,407.797 C734.49,421.176 734.396,434.628 730.199,447.769 C723.992,467.207 708.332,478.809 687.937,478.919 C683.987,478.94 682.468,480.275 681.472,483.867 C670.87,522.092 652.525,556.011 624.852,584.651 C621.733,587.879 618.318,590.823 614.989,593.842 C613.75,594.966 612.832,595.941 614.48,597.465 C624.005,606.271 630.72,617.192 637.463,628.091 C638.931,632.752 641.307,636.554 645.366,639.691 C653.02,645.608 655.923,653.686 653.371,663.194 C652.43,666.701 652.513,669.902 653.315,673.4 C658.973,698.092 660.312,723.094 658.177,748.297 C657.946,751.032 658.295,753.5 659.331,756.036 C671.727,786.365 677.479,818.176 680.339,850.632 C682.2,871.756 682.584,892.811 678.377,913.758 C669.402,958.453 639.023,984.093 593.294,990.106 C587.168,990.912 581.037,991.072 574.877,990.436 C571.659,990.103 568.581,994.249 570.012,997.296 C578.521,1015.4 577.591,1034.53 576.01,1053.63 C574.966,1066.25 572.2,1078.59 567.14,1090.31 C564.547,1096.31 561.299,1101.97 556.481,1106.43 C554.386,1108.37 554.235,1109.91 555.073,1112.46 C559.016,1124.45 562.307,1136.67 566.649,1148.51 C570.317,1158.5 565.947,1162.64 555.97,1163.93 C554.823,1164.08 553.64,1163.95 552.474,1163.95 C458.012,1163.95 363.55,1163.95 269.088,1163.95 C261.192,1163.95 262.804,1163.81 262.129,1156 C260.919,1141.98 268.568,1130.65 271.222,1117.9 C271.825,1115.01 271.625,1113.83 268.635,1112.57 C260.431,1109.13 255.204,1102.45 251.253,1094.72 C242.809,1078.21 240.134,1060.35 239.387,1042.12 C238.978,1032.14 239.248,1022.16 241.176,1012.28 C242.763,1004.14 245.258,996.508 252.048,990.352 C246.059,989.029 240.435,988.113 235.005,986.533 C206.021,978.1 186.54,958.451 172.485,932.705 C157.637,905.507 152.536,876.055 153.998,845.463 C156.584,791.382 175.261,742.694 204.835,697.84 C206.417,695.44 207.468,693.012 207.875,690.122 C211.021,667.745 217.518,646.377 227.504,626.088" fill="#6E4100"/>
      <path d="M708.992,590.155 C725.958,566.283 739.418,540.6 748.934,512.877 C758.863,483.951 764.77,454.291 766.495,423.694 C768.289,391.845 766.058,360.258 762.452,328.665 C759.012,298.524 753.474,268.883 743.165,240.259 C735.249,218.282 725.314,197.273 713.06,177.377 C712.302,176.147 711.904,174.558 710.309,173.979 C706.525,170.84 704.592,166.31 701.881,162.403 C691.956,148.098 681.017,134.654 669.024,122.055 C667.851,120.823 667.134,119.36 666.294,117.945 C649.082,99.199 629.218,83.645 607.902,69.919 C565.743,42.775 519.787,25.786 470.092,18.967 C443.654,15.34 417.332,17.129 391.052,20.689 C369.748,23.576 348.827,28.041 328.798,36.084 C323.856,38.069 319.022,40.288 314.452,43.05 C310.675,45.333 306.871,47.046 307.023,52.902 C307.125,56.846 303.451,59.051 299.277,59.168 C295.618,59.27 291.956,59.249 288.296,59.283 C286.811,59.669 285.319,60.036 283.879,60.58 C253.298,64.64 226.429,77.277 202.722,96.603 C182.744,112.888 165.539,131.876 150.797,153.056 C131.771,180.392 115.478,209.165 105.317,241.055 C97.549,265.435 92.772,290.404 91.655,316.02 C91.481,320.006 90.715,323.927 90.631,327.948 C90.178,349.643 92.011,371.158 94.921,392.634 C95.604,397.677 97.001,402.706 96.504,407.892 C97.998,419.082 100.695,430.03 103.366,440.97 C113.061,480.678 127.481,518.381 150.939,552.215 C167.012,575.399 186.45,595.301 209.226,611.927 C211.823,613.823 214.126,615.785 215.024,618.989 C215.507,623.065 214.021,626.182 210.355,628.079 C206.56,630.042 203.363,628.562 200.209,626.271 C157.166,595.003 126.716,554.002 106.417,505.128 C91.271,468.658 82.449,430.509 76.597,391.619 C68.6,338.468 71.626,285.99 88.414,234.772 C104.301,186.305 130.694,143.871 165.328,106.591 C186.968,83.299 211.844,64.376 241.784,52.752 C255.67,47.361 269.988,43.891 284.881,42.954 C286.567,42.848 288.147,42.754 289.445,41.398 C302.177,28.096 318.532,21.281 335.597,15.796 C365.436,6.206 396.162,1.586 427.379,0.696 C505.506,-1.532 575.025,23.783 636.958,69.832 C711.503,125.259 756.717,199.7 773.919,290.927 C782.375,335.769 785.426,381.19 782.981,426.697 C779.748,486.867 761.51,542.435 727.654,592.61 C720.486,603.233 713.946,614.319 703.471,622.243 C700.359,624.598 697.189,626.044 693.34,624.207 C687.457,621.399 686.66,614.212 692.032,609.862 C697.255,605.634 701.952,601.033 705.397,595.231 C705.884,593.035 707.16,591.398 708.992,590.155" fill="#6E4100"/>
      <path d="M51.125,666.413 C49.363,653.457 48.298,640.891 50.281,628.315 C51.477,620.725 54.455,613.942 62.518,611.617 C70.632,609.278 77.585,612.179 83.186,618.285 C91.119,626.935 93.442,637.899 95.156,648.929 C98.495,670.411 95.478,691.305 88.639,711.794 C87.68,714.667 86.207,716.465 83.219,716.837 C61.734,719.505 41.08,717.16 21.96,706.269 C13.528,701.466 6.931,694.756 2.701,685.936 C-4.102,671.752 2.294,660.935 17.964,659.957 C27.756,659.346 37.158,661.082 46.284,664.551 C47.779,665.119 49.27,665.699 51.125,666.413" fill="#FF7164"/>
    </g>
    <path d="M708.992,590.155 C707.99,591.986 707.098,593.895 705.397,595.231 C704.992,594.798 704.586,594.365 704.18,593.932 C705.494,592.303 706.448,590.215 708.992,590.155" fill="#EEE7DF"/>
    <path d="M96.504,407.892 C75.953,304.278 98.777,211.584 166.635,130.352 C186.228,106.898 208.769,86.869 236.521,73.358 C251.589,66.023 267.384,61.12 284.192,59.863 C285.213,59.621 285.51,60.064 285.277,61.009 C266.081,67.362 249.067,77.724 233.377,90.193 C206.31,111.706 181.583,135.604 161.681,164.078 C139.254,196.164 124.011,231.624 113.363,269.136 C103.887,302.516 98.277,336.52 97.134,371.259 C96.783,381.9 96.377,392.507 97.157,403.138 C97.272,404.698 97.832,406.468 96.504,407.892" fill="#FEFEFE"/>
    <path d="M467.045,175.169 C466.901,171.212 468.902,168.521 472.296,167.403 C476.266,166.096 479.91,167.139 482.303,170.91 C489.09,181.603 496.289,192.012 504.243,201.866 C545.336,252.78 593.586,294.958 653.077,323.323 C665.414,329.205 678.238,333.814 691.517,337.132 C697.175,338.546 700.245,342.936 698.991,347.614 C697.658,352.588 693.283,354.853 687.593,353.413 C656.741,345.607 628.792,331.422 602.204,314.325 C575.067,296.876 550.39,276.325 527.638,253.534 C505.949,231.808 486.305,208.33 469.736,182.391 C468.292,180.13 466.736,177.947 467.045,175.169" fill="#6E4100"/>
    <path d="M666.294,117.945 C680.051,130.811 691.505,145.617 702.291,160.959 C705.216,165.119 708.646,169.022 710.309,173.98 C703.435,177.965 696.683,182.181 689.664,185.892 C670.307,196.125 649.942,202.795 627.722,202.034 C617.011,201.668 606.681,199.535 596.415,193.843 C602.258,192.917 607.353,192.317 612.358,191.281 C646.867,184.141 666.271,160.212 666.279,124.93 C666.279,122.602 666.289,120.273 666.294,117.945" fill="#FEFEFE"/>
    <path d="M285.277,61.009 C284.916,60.627 284.554,60.245 284.192,59.863 C285.414,58.636 286.891,59.218 288.296,59.283 C287.29,59.858 286.284,60.433 285.277,61.009" fill="#C6B098"/>
    <path d="M182.557,476.024 C169.395,426.786 168.696,377.573 181.725,328.093 C193.432,283.637 212.192,243.067 243.966,209.229 C268.294,183.321 297.386,164.529 330.31,151.4 C334.045,149.91 334.773,151.924 335.999,154.354 C356.78,195.565 383.506,232.479 416.596,264.655 C464.745,311.472 521.46,344.349 584.516,366.646 C610.382,375.792 636.549,383.944 663.882,387.587 C667.015,388.005 670.164,388.331 673.315,388.559 C675.445,388.713 676.46,389.327 676.502,391.819 C677.009,421.796 673.547,451.246 665.125,480.064 C661.458,480.851 661.336,477.618 660.367,475.642 C654.483,463.639 646.066,454.18 634.102,447.851 C613.438,436.921 590.462,443.061 576.454,461.833 C569.278,471.451 564.602,482.327 563.667,494.434 C562.553,508.87 569.714,520.006 578.83,530.149 C592.321,545.161 608.995,548.54 627.942,543.212 C629.865,542.671 631.71,541.817 633.695,541.559 C634.884,541.405 636.511,540.92 636.435,543.142 C622.213,565.326 603.812,583.359 582.07,598.126 C579.497,599.873 578.81,598.777 577.816,596.635 C575.07,590.722 571.677,585.216 567.009,580.576 C556.772,570.402 543.995,569.483 532.998,578.837 C518.319,591.323 508.414,607.191 502.855,625.54 C501.461,630.142 499.533,631.734 495.044,632.554 C438.354,642.908 382.066,642.012 326.552,625.8 C280.732,612.419 242.859,587.209 215.236,547.659 C214.201,546.177 213.332,544.58 212.386,543.036 C214.374,541.618 216.268,542.831 218.087,543.385 C253.216,554.092 276.957,525.918 281.329,503.437 C284.629,486.469 277.132,471.809 266.665,458.863 C260.45,451.176 252.386,446.041 242.575,443.738 C225.978,439.841 212.141,445.256 199.776,455.97 C194.425,460.606 190.486,466.369 186.733,472.292 C185.721,473.888 185.141,476.123 182.557,476.024" fill="#FEF8EA"/>
    <path d="M574.471,873.088 C562.705,917.055 536.536,948.599 494.073,965.934 C472.882,974.585 450.621,978.286 427.869,979.298 C393.193,980.842 359.305,977.128 327.692,961.771 C291.995,944.43 269.417,915.836 258.291,877.952 C260.254,877.166 260.283,877.118 262.473,878.446 C268.431,882.057 274.951,883.875 281.814,884.636 C297.343,886.356 307.261,878.149 314.916,865.929 C323.624,852.029 316.818,835.822 309.036,826.117 C294.078,807.463 268.335,811.299 255.159,831.564 C253.89,833.517 253.622,836.5 250.51,836.899 C247.873,773.64 266.162,719.201 317.336,678.695 C321.105,675.712 325.377,673.371 329.329,670.607 C331.359,669.188 332.715,669.035 334.8,670.974 C369.953,703.668 412.159,722.674 458.234,733.941 C491.377,742.046 525.107,745.396 559.179,745.026 C564.306,744.97 566.326,746.684 567.955,751.273 C577.452,778.023 583.438,805.274 581.079,833.883 C578.754,833.857 578.225,831.794 577.318,830.347 C567.447,814.622 547.511,812.081 535.412,815.412 C518.585,820.044 507.407,841.991 513.336,858.337 C516.876,868.096 521.975,876.814 531.698,881.688 C543.268,887.488 557.567,885.112 567.946,875.922 C569.436,874.603 570.679,872.957 572.549,872.138 C573.384,871.773 574.577,871.275 574.471,873.088" fill="#FEF8EA"/>
    <path d="M335.367,645.932 C357.905,651.315 380.786,654.335 403.894,655.642 C411.04,656.046 418.235,656.266 425.371,655.893 C430.58,655.621 434.445,657.335 438.39,660.54 C460.101,678.177 483.726,692.688 509.878,702.812 C529.127,710.263 549.041,715.294 569.772,713.681 C576.729,713.14 582.698,713.887 589.223,715.815 C597.436,718.242 605.339,715.127 612.511,710.998 C615.27,709.409 616.394,709.968 617.936,712.364 C638.911,744.956 653.119,780.161 659.365,818.509 C662.363,836.916 664.61,855.43 664.983,874.045 C665.348,892.214 663.796,910.319 656.862,927.456 C646.47,953.141 626.082,966.25 600.065,972.012 C579.885,976.481 561.082,973.682 544.201,961.005 C541.438,958.93 540.801,957.683 543.8,955.108 C568.257,934.104 582.871,907.107 591.247,876.382 C591.684,874.779 592.111,873.164 592.378,871.527 C592.8,868.944 594.223,868.146 596.816,867.963 C615.851,866.616 627.602,854.693 629.123,835.141 C629.693,827.82 629.498,820.495 627.226,813.384 C623.242,800.919 614.522,794.512 601.438,794.983 C597.767,795.115 596.337,794.347 595.709,790.462 C593.293,775.502 589.477,760.864 584.082,746.681 C583.322,744.682 583.502,743.432 584.919,741.809 C587.281,739.103 587.912,735.879 586.027,732.574 C584.219,729.402 581.42,727.939 577.742,728.022 C559.425,728.436 541.111,728.535 522.832,727.007 C465.195,722.188 410.81,707.775 363.29,673.018 C352.75,665.309 343.744,655.956 334.516,646.829 C334.189,645.951 334.346,645.532 335.367,645.932" fill="#DCAE53"/>
    <path d="M299.61,634.143 C309.245,638.177 319.161,641.377 329.234,644.108 C329.857,645.242 328.944,645.467 328.228,645.808 C324.29,646.667 322.237,649.362 321.744,653.116 C321.469,655.215 320.469,656.279 318.796,657.318 C279.407,681.797 255.367,717.574 242.263,761.399 C239.308,771.285 237.038,781.327 235.416,791.502 C234.976,794.259 233.957,795.221 231.235,794.973 C212.56,793.268 203.22,807.431 202.366,822.771 C201.904,831.081 201.77,839.393 204.98,847.375 C210.016,859.899 219.397,866.743 232.615,867.797 C236.942,868.143 238.416,869.597 239.4,873.516 C247.229,904.719 261.767,932.108 285.869,953.932 C287.964,955.829 290.092,957.709 292.357,959.391 C294.652,961.095 294.396,962.213 292.163,963.805 C281.355,971.516 269.357,974.312 256.264,972.862 C241.596,968.892 230.887,959.199 221.562,947.968 C207.448,930.971 199.403,910.977 194.204,889.691 C188.544,866.522 186.924,842.959 188.183,819.282 C189.313,798.052 194.355,777.488 201.715,757.532 C211.318,731.498 225.078,707.888 242.929,686.631 C255.619,671.519 270.513,658.746 285.454,646.005 C290.139,642.01 295.124,638.375 299.61,634.143" fill="#DCAE53"/>
    <path d="M427.934,1124.42 C423.825,1126.87 420.359,1125.53 417.177,1124.41 C407.202,1120.89 396.785,1118.39 388.383,1111.21 C384.508,1107.9 379.692,1108.63 376.713,1111.98 C373.569,1115.52 373.95,1120.11 377.582,1124.1 C380.318,1127.1 383.975,1128.85 387.045,1131.39 C388.179,1132.32 389.733,1133.72 388.983,1135.11 C388.04,1136.85 386.272,1135.36 385.03,1134.91 C380.429,1133.22 376.606,1130.25 373.035,1126.98 C369.963,1124.18 367.077,1121.17 364.059,1118.31 C360.431,1114.87 355.726,1114.46 352.336,1117.21 C348.844,1120.05 348.356,1124.46 350.98,1128.88 C352.054,1130.69 353.012,1132.57 354.334,1134.99 C348.78,1134.56 345.633,1131.31 342.585,1128.18 C336.153,1121.56 331.132,1113.93 327.49,1105.44 C322.97,1094.92 318.851,1084.21 314.025,1073.83 C311.388,1068.15 313.078,1063.93 316.677,1059.83 C319.195,1056.96 322.146,1054.45 324.478,1051.45 C331.567,1042.32 330.144,1031.78 320.988,1024.75 C319.467,1023.58 318.306,1022.67 318.429,1020.42 C318.831,1013.1 314.956,1008.24 308.865,1004.79 C307.811,1004.2 306.588,1004.08 306.25,1002.27 C303.978,990.115 303.904,990.129 294.163,982.547 C299.095,979.452 303.989,976.504 308.006,972.44 C309.203,971.23 310.228,971.52 311.5,972.257 C322.045,978.361 333.243,982.987 344.865,986.553 C347.189,987.267 347.519,988.361 347.369,990.452 C346.385,1004.12 353.297,1013.12 364.737,1019.31 C367.101,1020.58 369.166,1022.09 371.041,1024.04 C379.163,1032.46 389.758,1036.4 400.509,1040.05 C408.133,1042.64 415.925,1044.86 423.496,1049.63 C415.632,1051.34 408.578,1051.82 401.505,1050.37 C397.43,1049.53 394.175,1050.55 392.051,1054.1 C389.943,1057.61 390.451,1061.1 393.038,1064.27 C402.233,1075.54 413.151,1084.53 426.813,1089.95 C430.823,1091.54 434.761,1093.32 438.687,1095.11 C439.374,1095.42 440.224,1096.16 440.327,1096.8 C440.538,1098.14 439.112,1098.23 438.276,1098.48 C431.293,1100.5 424.235,1101 417.146,1099.05 C414.909,1098.44 412.762,1097.5 410.529,1096.86 C404.641,1095.19 400.383,1097.02 398.736,1101.86 C397.096,1106.67 399.773,1110.75 405.783,1112.95 C413.435,1115.75 420.655,1119.4 427.934,1124.42" fill="#FEF8EA"/>
    <path d="M636.435,543.142 C634.212,541.292 632.404,543.34 630.519,543.888 C615.956,548.122 601.571,549.024 588.434,540.001 C575.75,531.288 566.481,519.77 562.984,504.382 C560.541,493.631 563.542,483.601 567.919,473.959 C575.712,456.793 587.719,444.486 607.259,441.604 C622.319,439.383 635.011,444.931 646.152,454.498 C653.163,460.518 658.596,467.838 662.104,476.499 C662.687,477.939 662.972,479.857 665.125,480.063 C658.75,502.54 649.675,523.788 636.435,543.142" fill="#FFD5BA"/>
    <path d="M182.557,476.024 C187.617,469.705 191.215,462.391 197.121,456.582 C221.739,432.364 257.804,437.294 274.485,467.566 C279.396,476.477 283.155,485.832 283.377,496.32 C283.608,507.222 279.254,516.349 272.992,524.763 C269.72,529.159 266.055,533.253 261.788,536.775 C248.362,547.854 233.243,548.904 217.165,544.436 C215.566,543.991 213.978,543.503 212.386,543.036 C200.028,525.456 191.793,505.928 185.293,485.587 C184.285,482.43 183.464,479.213 182.557,476.024" fill="#FFD5BA"/>
    <path d="M469.479,1135.83 C469.749,1133.06 471.285,1131.5 472.471,1129.76 C475.163,1125.8 474.913,1121.36 471.868,1118.42 C468.557,1115.21 464.034,1115.13 460.155,1118.41 C454.988,1122.78 450.279,1127.72 443.205,1131.7 C445.183,1127.81 445.009,1124.34 447.813,1121.91 C448.689,1121.15 449.496,1119.25 449.147,1118.32 C447.301,1113.38 450.703,1111.18 453.489,1108.21 C459.705,1101.6 459.186,1091.26 452.734,1084.78 C447.891,1079.91 441.564,1077.71 435.438,1075.16 C432.712,1074.03 429.951,1072.98 426.843,1071.74 C429.839,1068.59 432.331,1065.7 435.103,1063.11 C445.038,1053.82 445.405,1048.05 436.036,1037.19 C448.171,1034.46 456.816,1025.14 468.712,1022.08 C476.023,1020.2 482.217,1015.69 487.005,1009.63 C492.078,1003.22 493.401,995.781 492.068,987.948 C491.614,985.283 492.313,984.553 494.588,983.739 C504.935,980.035 514.834,975.347 524.23,969.621 C525.446,968.88 526.585,967.677 528.101,969.221 C531.927,973.116 536.549,976.06 541.484,979.787 C530.951,978.964 522.153,980.962 515.146,988.272 C513.401,990.093 511.285,992.053 511.181,994.471 C510.885,1001.3 507.091,1005.44 501.897,1009.14 C499.489,1010.86 497.924,1013.94 497.926,1016.95 C497.928,1021.47 495.864,1024.25 492.66,1027.23 C486.142,1033.29 485.504,1041.98 490.311,1049.5 C491.468,1051.31 492.696,1053.26 494.362,1054.52 C502.414,1060.63 504.326,1069.14 505.305,1078.62 C506.177,1087.07 504.783,1094.33 500.563,1101.75 C494.612,1112.21 488.749,1122.57 479.503,1130.55 C476.721,1132.95 473.757,1135.04 469.479,1135.83" fill="#FEF8EA"/>
    <path d="M516.01,637.243 C515.837,632.173 517.785,627.01 520.006,621.988 C524.97,610.766 531.667,600.697 540.571,592.166 C547.136,585.877 551.985,585.938 557.819,592.966 C565.241,601.907 568.549,612.75 571.194,623.812 C572.242,628.193 572.893,632.673 572.554,637.178 C571.958,645.09 577.933,647.023 583.595,645.723 C597.138,642.615 610.692,642.735 624.122,646.016 C640.53,650.024 642.901,656.366 633.493,670.249 C626.134,681.107 617.376,690.597 605.932,697.302 C603.933,698.474 601.819,699.514 599.648,700.317 C592.438,702.983 587.443,700.956 584.089,693.852 C580.186,685.586 579.618,676.533 578.289,667.671 C577.574,662.905 577.023,658.107 576.091,653.383 C574.863,647.16 570.858,645.881 564.568,647.136 C551.91,649.66 539.104,652.437 526.073,650.185 C518.336,648.848 515.894,645.459 516.01,637.243" fill="#FF7164"/>
    <path d="M299.61,634.143 C300.94,636.822 298.277,637.134 297.09,638.115 C277.829,654.025 258.401,669.766 242.508,689.248 C213.04,725.37 195.063,766.422 190.236,812.936 C187.123,842.929 189.901,872.493 198.782,901.292 C208.444,932.627 225.041,958.697 256.263,972.863 C237.399,972.511 221.401,964.968 208.099,952.176 C187.277,932.153 176.37,906.966 172.373,878.669 C166.318,835.805 175.486,795.271 192.344,756.192 C210.611,713.849 236.001,676.677 273.363,648.627 C280.019,643.629 286.961,639.06 294.112,634.792 C295.964,633.687 297.618,633.05 299.61,634.143" fill="#FEFEFE"/>
    <path d="M277.239,1154.95 C281.438,1141.24 285.463,1128.07 289.509,1114.91 C289.905,1113.62 290.499,1112.53 291.937,1111.97 C297.815,1109.68 302.44,1105.74 306.491,1100.17 C309.148,1105.8 311.587,1110.94 314.005,1116.09 C319.019,1126.78 325.891,1136.09 334.737,1143.9 C340.523,1149.01 347.4,1151.8 355.001,1152.76 C360.123,1153.4 365.148,1152.9 368.861,1148.87 C370.62,1146.96 371.817,1146.99 373.832,1148.24 C377.842,1150.73 382.326,1151.95 387,1152.56 C394.39,1153.52 401.34,1150.14 404.107,1143.3 C405.631,1139.54 407.737,1139.11 410.989,1140.09 C414.885,1141.27 418.362,1142.32 421.004,1146.36 C424.736,1152.06 431.236,1152.58 437.646,1151.72 C439.124,1151.52 440.586,1151.15 442.03,1150.75 C447.211,1149.35 452.487,1150.07 457.386,1151.91 C466.704,1155.4 475.513,1152.96 483.62,1148.18 C494.192,1141.96 501.709,1132.59 508.16,1122.36 C510.461,1118.71 512.503,1114.89 514.435,1111.03 C515.683,1108.54 516.573,1107.5 519.488,1109.48 C524.2,1112.69 529.62,1114.55 535.394,1114.74 C537.924,1114.83 538.685,1116.06 539.34,1118.21 C542.635,1129.01 545.91,1139.83 549.581,1150.51 C550.901,1154.35 550.316,1155.04 546.284,1155.04 C466.634,1154.92 386.984,1154.95 307.334,1154.95 C297.509,1154.95 287.684,1154.95 277.239,1154.95" fill="#FEFEFE"/>
    <path d="M574.471,873.088 C571.522,871.982 571.064,874.986 569.683,876.195 C559.077,885.481 547.279,888.815 533.669,883.973 C516.505,877.865 500.076,847.315 519.028,825.139 C536.286,804.946 571.095,811.727 581.079,833.883 C580.255,847.183 578.495,860.326 574.471,873.088" fill="#FFCEB4"/>
    <path d="M250.51,836.899 C254.555,829.323 259.645,822.645 266.962,817.913 C282.224,808.042 302.945,812.708 312.393,828.238 C317.74,837.027 322.691,846.447 319.665,856.891 C311.356,885.563 286.099,893.99 260.734,878.864 C259.977,878.412 259.558,877.041 258.291,877.953 C253.715,864.643 251.436,850.899 250.51,836.899" fill="#FFCEB4"/>
    <path d="M562.132,1035.69 C561.448,1052.27 559.937,1067.29 554.396,1081.62 C552.644,1086.15 550.493,1090.46 547.35,1094.17 C543.818,1098.34 539.57,1100.97 533.779,1099.35 C527.528,1097.59 522.263,1094.68 521.22,1087.49 C520.504,1082.56 519.879,1077.6 519.576,1072.63 C518.928,1061.99 515.037,1053.07 506.981,1045.86 C504.845,1043.95 500.22,1041.36 503.517,1038.07 C505.874,1035.73 508.125,1040.36 510.525,1041.68 C511.965,1042.47 513.126,1043.75 514.504,1044.68 C518.359,1047.26 522.764,1046.76 525.244,1043.52 C527.757,1040.24 527.221,1035.91 523.803,1032.83 C520.471,1029.82 516.806,1027.15 514.261,1023.37 C513.38,1022.06 511.906,1020.69 513.386,1018.95 C514.739,1017.35 516.352,1018.13 517.972,1018.61 C519.939,1019.18 521.584,1020.27 523.228,1021.41 C526.376,1023.6 529.648,1025.6 533.272,1026.88 C537.507,1028.37 541.568,1026.94 543.057,1023.36 C544.74,1019.31 543.808,1015.83 539.981,1013.41 C537.172,1011.63 534.278,1009.99 531.459,1008.23 C530.198,1007.44 528.894,1006.65 527.842,1005.62 C523.698,1001.56 524.23,998.718 529.507,996.112 C538.996,991.425 554.582,997.829 558.311,1008.04 C561.739,1017.43 561.568,1027.32 562.132,1035.69" fill="#FEF8EA"/>
    <path d="M254.359,1036.8 C254.125,1027.32 254.704,1018.54 257.235,1010 C260.372,999.428 273.725,992.129 284.29,995.21 C287.174,996.051 290.52,997.337 291.053,1000.469 C291.6,1003.68 288.591,1005.75 286.148,1007.43 C283.005,1009.58 279.589,1011.34 276.339,1013.35 C272.565,1015.68 271.283,1019.01 273.015,1023.15 C274.638,1027.03 278.691,1028.58 283.113,1026.76 C286.318,1025.44 289.289,1023.55 292.331,1021.85 C293.343,1021.29 294.169,1020.33 295.222,1019.91 C297.699,1018.92 300.604,1016.27 302.817,1019.24 C304.624,1021.66 301.741,1023.79 300.176,1025.51 C297.836,1028.08 295.107,1030.3 292.534,1032.65 C288.824,1036.05 288.266,1040.26 291.086,1043.66 C293.708,1046.82 297.984,1047.27 301.807,1044.57 C304.388,1042.76 306.729,1040.6 309.303,1038.77 C310.344,1038.03 311.548,1036.24 313.054,1038.11 C314.18,1039.51 313.674,1040.94 312.612,1042.18 C311.53,1043.44 310.502,1044.78 309.243,1045.84 C300.186,1053.49 296.903,1063.65 296.31,1075.04 C296.137,1078.36 295.828,1081.67 295.422,1084.97 C294.41,1093.17 290.676,1097.26 282.459,1099.32 C276.606,1100.79 271.738,1098.71 267.357,1092.25 C259.669,1080.91 257.16,1067.84 255.403,1054.6 C254.594,1048.5 253.968,1042.36 254.359,1036.8" fill="#FEF8EA"/>
    <path d="M459.406,654.557 C470.994,653.356 482.005,652.094 492.898,650.025 C493.875,649.84 494.906,649.839 495.838,649.529 C499.856,648.192 502.235,648.697 504.717,653.116 C509.903,662.348 519.218,665.226 529.272,665.926 C539.138,666.612 548.845,664.86 558.562,663.682 C561.737,663.297 562.77,664.12 563.091,666.944 C564.142,676.187 565.267,685.419 568.006,694.361 C568.967,697.499 566.699,697.069 564.922,697.117 C554.357,697.404 544.047,695.61 533.908,692.913 C506.851,685.716 482.815,672.403 460.277,656.127 C460.041,655.957 459.959,655.574 459.406,654.557" fill="#DCAE53"/>
    <path d="M716.637,424.592 C716.461,432.564 715.868,440.32 712.284,447.536 C707.876,456.409 700.383,460.56 690.944,462.027 C687.775,462.519 686.818,461.755 687.512,458.442 C690.927,442.12 692.479,425.567 693.205,408.93 C693.365,405.272 693.412,401.596 693.225,397.942 C693.088,395.249 694.185,394.601 696.693,394.515 C704.991,394.232 710.167,397.451 713.475,405.166 C716.163,411.432 716.405,418.078 716.637,424.592" fill="#FEF8EA"/>
    <path d="M133.316,425.595 C133.34,417.83 134.068,411.217 136.565,404.955 C139.408,397.827 145.275,394.216 152.522,394.519 C154.635,394.607 155.368,395.177 155.383,397.362 C155.522,418.038 157.294,438.57 161.345,458.865 C162.036,462.329 160.421,462.272 157.909,461.885 C145.333,459.947 136.746,451.102 134.448,437.448 C133.731,433.185 133.092,428.892 133.316,425.595" fill="#FEF8EA"/>
    <path d="M231.74,662.698 C236.453,645.033 243.725,628.795 255.501,614.814 C256.795,613.278 257.793,612.395 260.002,613.815 C265.829,617.56 271.872,620.967 278.202,624.731 C269.627,630.356 261.502,636.131 253.837,642.516 C246.185,648.889 238.912,655.678 231.74,662.698" fill="#FEFC9F"/>
    <path d="M431.29,996.164 C446.038,995.045 459.882,993.436 473.443,990.01 C476.511,989.235 477.681,989.91 477.478,993.189 C477.329,995.599 476.76,997.752 475.459,999.755 C469.254,1009.31 451.64,1013.16 442.159,1006.95 C438.009,1004.23 434.238,1001.07 431.29,996.164" fill="#FF7164"/>
    <path d="M408.847,996.124 C404.011,1002.31 399.385,1006.76 393.249,1009.31 C384.522,1012.95 367.92,1006.79 363.535,998.397 C362.755,996.905 362.28,995.354 362.293,993.622 C362.305,991.918 362.724,991.344 364.62,991.701 C378.82,994.371 393.117,996.258 408.847,996.124" fill="#FF7163"/>
    <path d="M232.864,826.489 C232.91,833.663 233.683,840.789 234.628,847.862 C235.125,851.587 233.496,851.365 231.077,850.726 C224.798,849.068 221.202,844.791 219.85,838.642 C218.331,831.735 218.197,824.784 220.349,817.952 C221.344,814.794 223.103,812.376 226.761,811.772 C231.977,810.911 233.042,811.778 232.881,817.027 C232.785,820.178 232.864,823.335 232.864,826.489" fill="#FEF7E9"/>
    <path d="M598.286,825.93 C598.286,822.553 598.06,820.03 598.359,817.57 C598.59,815.664 596.77,812.862 599.74,811.974 C602.82,811.052 606.149,811.158 608.539,813.79 C609.722,815.093 610.669,816.828 611.133,818.529 C613.143,825.906 613.072,833.342 610.886,840.673 C610.024,843.565 608.416,846.125 605.907,847.97 C603.309,849.881 600.068,851.992 597.283,850.753 C594.923,849.703 597.218,846.309 597.282,843.965 C597.453,837.656 598.576,831.391 598.286,825.93" fill="#FEF8EA"/>
    <path d="M618.09,629.3 C608.13,628.32 598.877,628.158 589.635,629.095 C589.14,629.145 588.559,629.303 588.155,629.115 C586.017,628.126 585.273,616.115 587.276,614.732 C589.734,613.037 592.618,611.799 594.681,609.729 C598.67,605.728 601.411,607.428 604.361,610.892 C609.167,616.536 614.194,622.001 618.09,629.3" fill="#FDFB9F"/>
    <path d="M401.981,1022.14 C408.178,1018.51 413.841,1013.95 418.519,1008.27 C419.486,1007.1 420.127,1006.93 421.155,1008.16 C424.769,1012.49 429.032,1016.16 434.368,1020.29 C423.081,1022.89 413.199,1030.11 401.981,1022.14" fill="#FDFDFD"/>
    <path d="M641.509,718.302 C637.97,712.669 634.519,706.978 630.844,701.435 C629.565,699.506 629.055,698.313 631.175,696.507 C633.919,694.17 636.219,691.311 639.068,688.298 C641.122,698.519 641.837,708.341 641.509,718.302" fill="#FDF99E"/>
    <path d="M328.228,645.808 C328.564,645.241 328.899,644.675 329.234,644.108 C331.335,644.524 333.528,644.635 335.367,645.933 C335.083,646.232 334.798,646.531 334.515,646.829 C332.42,646.489 330.324,646.149 328.228,645.808" fill="#AF8230"/>
    <path d="M434.728,602.137 C419.013,601.968 409.326,595.696 401.869,585.464 C395.523,576.755 391.856,566.76 388.591,556.633 C387.757,554.045 386.881,552.363 383.954,551.619 C379.926,550.594 378.327,547.394 379.543,543.494 C380.699,539.787 383.742,538.301 387.477,539.387 C411.133,546.269 434.817,544.736 458.533,539.841 C464.766,538.555 467.837,540.79 467.783,547.108 C467.663,561.282 465.062,574.898 457.378,587.092 C451.546,596.344 443.669,602.398 434.728,602.137" fill="#6E4100"/>
    <path d="M287.159,443.549 C287.05,436.739 288.281,430.564 291.184,424.857 C292.455,422.358 292.546,420.521 290.955,418.078 C287.618,412.952 286.384,407.114 286.319,401.016 C286.277,397.089 288.021,394.474 292.026,394.294 C296.015,394.115 298.006,396.529 298.341,400.454 C298.525,402.597 298.798,404.745 299.231,406.85 C300.003,410.611 300.921,413.686 306.297,412.409 C309.698,411.601 312.969,413.881 315.722,416.18 C328.945,427.22 331.284,449.186 320.668,462.704 C312.25,473.424 298.328,472.568 291.228,460.86 C287.931,455.423 286.93,449.424 287.159,443.549" fill="#6E4100"/>
    <path d="M562.017,444.139 C561.688,450.228 560.887,457.133 556.323,462.941 C549.075,472.163 537.594,472.683 529.576,464.163 C519.529,453.485 518.75,436.813 527.93,422.649 C529.581,420.102 530.046,418.294 528.329,415.651 C526.063,412.163 524.595,408.22 523.691,404.15 C522.897,400.572 524.202,397.76 527.877,396.833 C531.373,395.95 534.082,397.228 535.273,400.91 C535.782,402.487 536.246,404.085 536.862,405.62 C538.34,409.302 539.681,412.533 544.89,412.801 C549.987,413.064 553.281,417.211 555.933,421.363 C560.173,428.001 561.627,435.464 562.017,444.139" fill="#6E4100"/>
    <path d="M330.316,236.4 C330.362,238.814 329.174,240.649 327.17,241.692 C325.187,242.724 322.592,243.048 321.079,241.335 C317.926,237.767 314.167,236.297 309.586,236.647 C303.68,237.098 298.03,238.598 293.463,242.493 C290.118,245.346 286.891,246.688 283.398,243.356 C280.497,240.589 281.418,236.519 285.692,233.192 C295.122,225.851 305.885,223.298 317.585,225.327 C324.324,226.495 330.283,232.04 330.316,236.4" fill="#6E4100"/>
    <path d="M421.994,465.543 C428.73,465.405 437.063,477.745 434.407,483.924 C431.961,489.613 424.575,490.971 420.511,486.256 C418.258,483.643 416.26,480.699 414.7,477.624 C411.851,472.007 415.821,465.669 421.994,465.543" fill="#6E4100"/>
    <path d="M419.195,899.823 C390.675,899.8 366.99,884.584 358.587,863.619 C357.726,861.469 356.681,859.284 357.682,856.894 C358.666,854.549 360.463,853.151 363.024,853.022 C366.069,852.869 368.079,854.458 369.122,857.224 C375.099,873.086 387.235,881.842 402.994,886.044 C425.189,891.963 447.138,881.254 457.475,859.821 C460.487,853.576 463.092,851.809 466.824,853.479 C470.905,855.305 471.456,858.855 468.362,865.068 C457.375,887.138 439.412,898.536 419.195,899.823" fill="#6E4100"/>
    <path d="M314.348,792.435 C314.109,789.96 314.772,787.654 315.741,785.596 C317.288,782.308 319.1,779.464 315.773,775.968 C314.364,774.489 315.388,772.023 317.163,770.727 C319.064,769.337 321.498,769.106 323.115,770.821 C327.539,775.515 331.328,770.109 335.444,770.263 C336.551,770.304 335.964,768.621 336.013,767.689 C336.154,764.973 337.619,763.315 340.29,763.073 C342.981,762.829 344.89,764.253 345.291,766.883 C345.79,770.157 347.432,771.868 350.495,773.211 C354.855,775.123 357.972,778.734 359.94,783.096 C361.365,786.254 361.293,789.493 357.881,791.34 C354.53,793.156 351.56,792.382 349.325,789.003 C345.188,782.752 341.923,781.321 335.694,782.733 C330.013,784.021 327.256,787.225 326.287,793.943 C325.724,797.847 323.616,800.199 319.683,799.833 C315.397,799.435 313.91,796.431 314.348,792.435" fill="#6E4100"/>
    <path d="M515.325,775.537 C509.993,780.326 516.39,784.867 516.955,789.971 C517.27,792.813 517.843,795.662 515.594,797.993 C513.99,799.655 511.971,800.426 509.686,799.692 C507.1,798.862 505.709,797.12 505.248,794.289 C503.907,786.053 499,782.219 491.181,782.89 C486.966,783.252 484.113,785.431 482.238,789.13 C480.35,792.854 477.314,794.234 473.59,792.245 C469.703,790.167 469.823,786.669 471.614,783.186 C473.141,780.215 475.066,777.47 477.911,775.577 C481.505,773.186 485.745,771.625 486.071,766.121 C486.188,764.153 488.713,763.301 490.915,763.64 C492.902,763.945 494.806,765.125 494.549,767.1 C493.958,771.629 497.427,770.945 499.773,771.635 C502.324,772.386 504.928,774.357 507.435,771.19 C508.984,769.232 511.319,769.387 513.365,770.427 C514.952,771.235 515.65,772.789 515.325,775.537" fill="#6E4100"/>
    <path d="M333.903,683.946 C338.14,683.854 341.753,685.333 344.856,688.067 C347.199,690.131 347.558,692.716 345.754,695.176 C344.048,697.502 341.618,697.61 339.086,696.297 C332.756,693.013 328.209,694.285 325.035,700.675 C323.312,704.146 321.182,706.502 317.387,704.448 C313.573,702.385 314.464,698.837 316.158,695.745 C319.995,688.747 325.764,684.511 333.903,683.946" fill="#6E4100"/>
    <path d="M406.935,786.588 C407.113,783.854 408.47,781.828 411.658,781.541 C415.072,781.234 418.999,785.859 419.29,790.522 C419.503,793.933 417.817,795.87 414.419,796.076 C411.158,796.274 407.118,791.204 406.935,786.588" fill="#704401"/>
    <path d="M418.65,556.906 C428.961,556.815 439.911,556.227 450.729,554.214 C453.776,553.647 454.973,554.15 454.356,557.574 C452.965,565.302 451.101,572.854 446.967,579.623 C440.301,590.537 428.608,592.598 418.515,584.504 C409.976,577.658 406.223,567.796 402.538,557.963 C401.806,556.011 402.919,555.737 404.548,555.87 C409.021,556.237 413.499,556.533 418.65,556.906" fill="#FEFEFE"/>
  </g>
</svg>
